<!-- Generator: Adobe Illustrator 19.1.0, SVG Export Plug-In  -->
<svg version="1.1"
	 xmlns="http://www.w3.org/2000/svg" xmlns:xlink="http://www.w3.org/1999/xlink" xmlns:a="http://ns.adobe.com/AdobeSVGViewerExtensions/3.0/"
	 x="0px" y="0px" width="27.8px" height="27.8px" viewBox="0 0 27.8 27.8" enable-background="new 0 0 27.8 27.8"
	 xml:space="preserve">
<defs>
</defs>
<path fill="#006DB6" d="M12,18.6c0.3,0.3,0.7,0.3,1,0l4.1-4.1c0.3-0.3,0.3-0.8,0-1l-4.1-4.1c-0.3-0.3-0.7-0.3-1,0
	c-0.3,0.3-0.3,0.8,0,1l3.3,3.6L12,17.5C11.7,17.8,11.7,18.3,12,18.6z M13.9,27.8c7.7,0,13.9-6.2,13.9-13.9S21.6,0,13.9,0
	C6.2,0,0,6.2,0,13.9C0,21.6,6.2,27.8,13.9,27.8z M13.9,26C7.2,26,1.8,20.6,1.8,13.9c0-6.7,5.4-12.1,12.1-12.1S26,7.2,26,13.9
	C26,20.6,20.6,26,13.9,26z"/>
</svg>
