<!-- Generator: Adobe Illustrator 19.1.0, SVG Export Plug-In  -->
<svg version="1.1"
	 xmlns="http://www.w3.org/2000/svg" xmlns:xlink="http://www.w3.org/1999/xlink" xmlns:a="http://ns.adobe.com/AdobeSVGViewerExtensions/3.0/"
	 x="0px" y="0px" width="27.8px" height="27.8px" viewBox="0 0 27.8 27.8" enable-background="new 0 0 27.8 27.8"
	 xml:space="preserve">
<defs>
</defs>
<path fill="#006DB6" d="M15.8,9.2c-0.3-0.3-0.7-0.3-1,0l-4.1,4.1c-0.3,0.3-0.3,0.8,0,1l4.1,4.1c0.3,0.3,0.7,0.3,1,0
	c0.3-0.3,0.3-0.8,0-1l-3.3-3.6l3.3-3.6C16.1,10,16.1,9.5,15.8,9.2z M13.9,0C6.2,0,0,6.2,0,13.9c0,7.7,6.2,13.9,13.9,13.9
	c7.7,0,13.9-6.2,13.9-13.9S21.6,0,13.9,0z M13.9,1.8C20.6,1.8,26,7.2,26,13.9C26,20.6,20.6,26,13.9,26S1.8,20.6,1.8,13.9
	C1.8,7.2,7.2,1.8,13.9,1.8z"/>
</svg>
