<?xml version="1.0" encoding="utf-8"?>
<!-- Generator: Adobe Illustrator 20.1.0, SVG Export Plug-In . SVG Version: 6.00 Build 0)  -->
<svg version="1.1" id="Capa_1" xmlns="http://www.w3.org/2000/svg" xmlns:xlink="http://www.w3.org/1999/xlink" x="0px" y="0px"
	 width="20.9px" height="20.9px" viewBox="0 0 20.9 20.9" style="enable-background:new 0 0 20.9 20.9;" xml:space="preserve">
<path d="M11.9,7c-0.2-0.2-0.6-0.2-0.8,0l-3.1,3.1c-0.2,0.2-0.2,0.6,0,0.8l3.1,3.1c0.2,0.2,0.6,0.2,0.8,0
	c0.2-0.2,0.2-0.6,0-0.8l-2.5-2.7l2.5-2.7C12.1,7.5,12.1,7.2,11.9,7z M10.5,0C4.7,0,0,4.7,0,10.5s4.7,10.5,10.5,10.5
	c5.8,0,10.5-4.7,10.5-10.5S16.3,0,10.5,0z M10.5,1.4c5,0,9.1,4.1,9.1,9.1c0,5-4.1,9.1-9.1,9.1s-9.1-4.1-9.1-9.1
	C1.4,5.4,5.4,1.4,10.5,1.4z"/>
</svg>
