<!-- Generator: Adobe Illustrator 19.1.0, SVG Export Plug-In  -->
<svg version="1.1"
	 xmlns="http://www.w3.org/2000/svg" xmlns:xlink="http://www.w3.org/1999/xlink" xmlns:a="http://ns.adobe.com/AdobeSVGViewerExtensions/3.0/"
	 x="0px" y="0px" width="36.4px" height="31.1px" viewBox="0 0 36.4 31.1" enable-background="new 0 0 36.4 31.1"
	 xml:space="preserve">
<defs>
</defs>
<g>
	<path fill="#006DB6" d="M0,20.3c0-2.2,0.4-4.3,1.2-6.4S3,10,4.4,8.2C5.7,6.5,7.2,4.9,9,3.5c1.8-1.4,3.6-2.6,5.5-3.5l2.6,3.2
		c-1.9,1.7-3.6,3.5-5.1,5.5c-1.4,2-2.2,3.9-2.2,5.8c0,1.1,0.2,1.9,0.7,2.3c0.5,0.4,1.1,0.8,1.8,1.3c0.8,0.6,1.6,1.4,2.3,2.4
		c0.7,1,1,2.2,1,3.7c0,2.1-0.7,3.7-2,5c-1.3,1.3-3.1,2-5.2,2c-2.4,0-4.4-0.9-6.1-2.8C0.8,26.4,0,23.7,0,20.3z M19.3,20.3
		c0-2.2,0.4-4.3,1.2-6.4c0.8-2,1.9-3.9,3.2-5.7c1.3-1.7,2.9-3.3,4.6-4.7c1.8-1.4,3.6-2.6,5.5-3.5l2.6,3.2c-1.9,1.7-3.6,3.5-5.1,5.5
		c-1.4,2-2.2,3.9-2.2,5.8c0,1.1,0.3,1.9,0.8,2.3c0.5,0.4,1.1,0.8,1.8,1.3c0.8,0.6,1.6,1.4,2.3,2.4c0.7,1,1,2.2,1,3.7
		c0,2.1-0.7,3.7-2,5c-1.3,1.3-3.1,2-5.2,2c-2.4,0-4.4-0.9-6.1-2.8C20.2,26.4,19.3,23.7,19.3,20.3z"/>
</g>
</svg>
