<!-- Generator: Adobe Illustrator 19.1.0, SVG Export Plug-In  -->
<svg version="1.1"
	 xmlns="http://www.w3.org/2000/svg" xmlns:xlink="http://www.w3.org/1999/xlink" xmlns:a="http://ns.adobe.com/AdobeSVGViewerExtensions/3.0/"
	 x="0px" y="0px" width="28px" height="28px" viewBox="0 0 28 28" enable-background="new 0 0 28 28" xml:space="preserve">
<defs>
</defs>
<path fill="#0277A5" d="M14,0C6.3,0,0,6.3,0,14s6.3,14,14,14s14-6.3,14-14S21.7,0,14,0z M10.6,19.8H7.7v-9.1h2.8V19.8z M9.1,9.6
	c-0.9,0-1.5-0.6-1.5-1.4c0-0.8,0.6-1.4,1.5-1.4c0.9,0,1.5,0.6,1.5,1.4C10.7,8.9,10.1,9.6,9.1,9.6z M20.9,19.8h-2.8v-5.1
	c0-1.2-0.4-2-1.4-2c-0.8,0-1.2,0.5-1.5,1.1c-0.1,0.2-0.1,0.4-0.1,0.7v5.3h-2.8v-6.2c0-1.1,0-2.1-0.1-2.9h2.5l0.1,1.3h0.1
	c0.4-0.6,1.3-1.5,2.8-1.5c1.9,0,3.3,1.2,3.3,3.9V19.8z"/>
</svg>
