<svg version="1.1" id="Capa_1" xmlns="http://www.w3.org/2000/svg" xmlns:xlink="http://www.w3.org/1999/xlink" x="0px" y="0px"
	 width="32px" height="32px" viewBox="0 0 32 32" style="enable-background:new 0 0 32 32;" xml:space="preserve">
<path fill="#006DB6" d="M16,0C7.2,0,0,7.2,0,16s7.2,16,16,16s16-7.2,16-16S24.8,0,16,0z"/>
<path fill="white" d="M7.6,11.3c0.5,0.3,7.2,3.9,7.5,4c0.3,0.1,0.6,0.2,0.9,0.2c0.3,0,0.7-0.1,0.9-0.2c0.3-0.1,7-3.8,7.5-4
	c0.5-0.3,1-1.3,0.1-1.3H7.5C6.6,10,7.1,11,7.6,11.3z M24.6,13.5c-0.6,0.3-7.4,3.8-7.7,4c-0.3,0.2-0.6,0.2-0.9,0.2
	c-0.3,0-0.6,0-0.9-0.2c-0.3-0.2-7.1-3.7-7.7-4C7,13.3,7,13.5,7,13.7S7,21,7,21c0,0.4,0.6,1,1,1h16c0.4,0,1-0.6,1-1c0,0,0-7.1,0-7.3
	S25,13.3,24.6,13.5z"/>
</svg>