<!-- Generator: Adobe Illustrator 19.1.0, SVG Export Plug-In  -->
<svg version="1.1"
	 xmlns="http://www.w3.org/2000/svg" xmlns:xlink="http://www.w3.org/1999/xlink" xmlns:a="http://ns.adobe.com/AdobeSVGViewerExtensions/3.0/"
	 x="0px" y="0px" width="28.2px" height="28.2px" viewBox="0 0 28.2 28.2" enable-background="new 0 0 28.2 28.2"
	 xml:space="preserve">
<defs>
</defs>
<g id="Nuevo_símbolo_1_copia">
	<g>
		<circle cx="14.1" cy="14.1" r="2.1"/>
		<path d="M19.6,9.8c-0.1-0.3-0.2-0.5-0.5-0.7c-0.2-0.2-0.4-0.4-0.7-0.5c-0.2-0.1-0.6-0.2-1.3-0.2c-0.8,0-1,0-3,0
			c-2,0-2.2,0-3,0c-0.7,0-1,0.1-1.3,0.2C9.5,8.7,9.3,8.9,9.1,9.1C8.9,9.3,8.7,9.5,8.6,9.8c-0.1,0.2-0.2,0.6-0.2,1.3c0,0.8,0,1,0,3
			c0,2,0,2.2,0,3c0,0.7,0.1,1,0.2,1.3c0.1,0.3,0.2,0.5,0.5,0.7c0.2,0.2,0.4,0.4,0.7,0.5c0.2,0.1,0.6,0.2,1.3,0.2c0.8,0,1,0,3,0
			c2,0,2.2,0,3,0c0.7,0,1-0.1,1.3-0.2c0.3-0.1,0.5-0.2,0.7-0.5c0.2-0.2,0.4-0.4,0.5-0.7c0.1-0.2,0.2-0.6,0.2-1.3c0-0.8,0-1,0-3
			c0-2,0-2.2,0-3C19.8,10.4,19.6,10.1,19.6,9.8z M14.1,18.3c-2.3,0-4.2-1.9-4.2-4.2s1.9-4.2,4.2-4.2s4.2,1.9,4.2,4.2
			S16.4,18.3,14.1,18.3z M18.1,11c-0.5,0-0.9-0.4-0.9-0.9c0-0.5,0.4-0.9,0.9-0.9S19,9.6,19,10.1C19,10.6,18.6,11,18.1,11z"/>
		<path d="M14.1,0C6.3,0,0,6.3,0,14.1s6.3,14.1,14.1,14.1c7.8,0,14.1-6.3,14.1-14.1S21.9,0,14.1,0z M21.9,17.2
			c0,0.8-0.2,1.4-0.4,1.9c-0.2,0.6-0.5,1-0.9,1.5c-0.4,0.4-0.9,0.7-1.5,0.9c-0.6,0.2-1.2,0.3-1.9,0.4c-0.8,0-1.1,0-3.1,0
			s-2.3,0-3.1,0c-0.8,0-1.4-0.1-1.9-0.4c-0.6-0.2-1-0.5-1.5-0.9c-0.4-0.4-0.7-0.9-0.9-1.5c-0.2-0.6-0.3-1.2-0.4-1.9
			c0-0.8,0-1.1,0-3.1c0-2,0-2.3,0-3.1c0-0.8,0.1-1.4,0.4-1.9c0.2-0.6,0.5-1,0.9-1.5C8,7.2,8.5,6.9,9.1,6.7c0.6-0.2,1.2-0.3,1.9-0.4
			c0.8,0,1.1,0,3.1,0s2.3,0,3.1,0c0.8,0,1.4,0.1,1.9,0.4c0.6,0.2,1,0.5,1.5,0.9C21,8,21.3,8.5,21.5,9.1c0.2,0.6,0.3,1.2,0.4,1.9
			c0,0.8,0,1.1,0,3.1C21.9,16.1,21.9,16.4,21.9,17.2z"/>
	</g>
</g>
</svg>
