<!-- Generator: Adobe Illustrator 19.1.0, SVG Export Plug-In  -->
<svg version="1.1"
	 xmlns="http://www.w3.org/2000/svg" xmlns:xlink="http://www.w3.org/1999/xlink" xmlns:a="http://ns.adobe.com/AdobeSVGViewerExtensions/3.0/"
	 x="0px" y="0px" width="28.2px" height="28.2px" viewBox="0 0 28.2 28.2" enable-background="new 0 0 28.2 28.2"
	 xml:space="preserve">
<defs>
</defs>
<g id="Nuevo_símbolo_1_copia">
	<path d="M14.1,0C6.3,0,0,6.3,0,14.1s6.3,14.1,14.1,14.1s14.1-6.3,14.1-14.1S21.9,0,14.1,0z M10.6,19.9H7.8v-9.2h2.9
		V19.9z M9.2,9.6C8.3,9.6,7.7,9,7.7,8.2c0-0.8,0.6-1.4,1.5-1.4s1.5,0.6,1.5,1.4C10.7,9,10.2,9.6,9.2,9.6z M21.1,19.9h-2.9v-5.1
		c0-1.2-0.4-2-1.4-2c-0.8,0-1.3,0.5-1.5,1.1c-0.1,0.2-0.1,0.5-0.1,0.7v5.3h-2.9v-6.3c0-1.1,0-2.1-0.1-2.9h2.5l0.1,1.3h0.1
		c0.4-0.6,1.3-1.5,2.8-1.5c1.9,0,3.3,1.3,3.3,4V19.9z"/>
</g>
</svg>
