<!-- Generator: Adobe Illustrator 19.1.0, SVG Export Plug-In  -->
<svg version="1.1"
	 xmlns="http://www.w3.org/2000/svg" xmlns:xlink="http://www.w3.org/1999/xlink" xmlns:a="http://ns.adobe.com/AdobeSVGViewerExtensions/3.0/"
	 x="0px" y="0px" width="28px" height="28px" viewBox="0 0 28 28" enable-background="new 0 0 28 28" xml:space="preserve">
<defs>
</defs>
<g id="Nuevo_símbolo_1_copia">
	<path d="M16.3,13.8l-3.3-1.5c-0.3-0.1-0.5,0-0.5,0.3v2.9c0,0.3,0.2,0.5,0.5,0.3l3.3-1.5
		C16.6,14.1,16.6,13.9,16.3,13.8z M14,0C6.3,0,0,6.3,0,14s6.3,14,14,14s14-6.3,14-14S21.7,0,14,0z M14,19.7c-7.2,0-7.3-0.6-7.3-5.7
		S6.8,8.3,14,8.3S21.3,9,21.3,14S21.2,19.7,14,19.7z"/>
</g>
</svg>
