<!-- Generator: Adobe Illustrator 19.1.0, SVG Export Plug-In  -->
<svg version="1.1"
	 xmlns="http://www.w3.org/2000/svg" xmlns:xlink="http://www.w3.org/1999/xlink" xmlns:a="http://ns.adobe.com/AdobeSVGViewerExtensions/3.0/"
	 x="0px" y="0px" width="32px" height="46px" viewBox="0 0 32 46" enable-background="new 0 0 32 46" xml:space="preserve">
<defs>
</defs>
<g>
	<g>
		<g>
			<circle fill="#FFFFFF" cx="16.8" cy="9.9" r="9"/>
			<path fill="#006DB6" d="M16.8,19.8c-5.5,0-9.9-4.4-9.9-9.9c0-5.5,4.4-9.9,9.9-9.9s9.9,4.4,9.9,9.9C26.7,15.4,22.2,19.8,16.8,19.8
				z M16.8,1.8c-4.5,0-8.1,3.6-8.1,8.1c0,4.5,3.6,8.1,8.1,8.1s8.1-3.6,8.1-8.1C24.9,5.4,21.2,1.8,16.8,1.8z"/>
		</g>
		<g>
			<path fill="#FFFFFF" d="M32,39.3V45H1v-5.7c0-8.7,6.7-15.8,15.5-15.8C25.3,23.4,32,30.5,32,39.3z"/>
			<path fill="#006DB6" d="M31.6,46H0.9C0.4,46,0,45.6,0,45.1v-5.8c0-9.4,6.9-16.8,16-16.8c9.1,0,16,7.4,16,16.8v5.8
				C32,45.6,32.1,46,31.6,46z M2,44h29v-4.7c0-8.4-6.4-14.9-14.5-14.9C8.4,24.3,2,30.9,2,39.3V44z"/>
		</g>
		<g>
			<path fill="#FFFFFF" d="M7.8,9.7c0,0,6.5,1.9,12.4-3.4c0,0,2.8,2.9,5.5,3"/>
			<path fill="#006DB6" d="M10.7,11c-1.8,0-3-0.3-3.1-0.4c-0.5-0.1-0.8-0.6-0.6-1.1C7.1,9,7.6,8.7,8.1,8.9c0.3,0.1,6.1,1.7,11.5-3.2
				c0.4-0.3,0.9-0.3,1.2,0c0,0,2.6,2.6,4.9,2.8c0.5,0,0.9,0.5,0.8,1s-0.5,0.9-1,0.8c-2.3-0.1-4.5-1.8-5.5-2.7
				C16.7,10.3,13.1,11,10.7,11z"/>
		</g>
	</g>
	<g>
		<polygon fill="#FFFFFF" points="20.7,45.1 12.8,45.1 14.6,28 18.7,28 		"/>
		<path fill="#006DB6" d="M20.7,46h-8c-0.3,0-0.5-0.1-0.7-0.3c-0.2-0.2-0.3-0.4-0.2-0.7l1.8-17c0-0.5,0.4-0.8,0.9-0.8h4.1
			c0.5,0,0.8,0.3,0.9,0.8l2,17c0,0.3-0.1,0.5-0.2,0.7C21.2,45.9,21,46,20.7,46z M13.8,44.2h6l-1.8-15.2h-2.5L13.8,44.2z"/>
	</g>
	<g>
		<polyline fill="#FFFFFF" points="13.7,24.2 14.6,28 18.7,28 19.6,24.2 		"/>
		<path fill="#006DB6" d="M18.7,28.9h-4.1c-0.4,0-0.8-0.3-0.9-0.7l-0.9-3.8c-0.1-0.5,0.2-1,0.7-1.1c0.5-0.1,1,0.2,1.1,0.7l0.7,3.1
			H18l0.7-3.1c0.1-0.5,0.6-0.8,1.1-0.7c0.5,0.1,0.8,0.6,0.7,1.1l-0.9,3.8C19.5,28.6,19.1,28.9,18.7,28.9z"/>
	</g>
</g>
</svg>
