<!-- Generator: Adobe Illustrator 19.1.0, SVG Export Plug-In  -->
<svg version="1.1"
	 xmlns="http://www.w3.org/2000/svg" xmlns:xlink="http://www.w3.org/1999/xlink" xmlns:a="http://ns.adobe.com/AdobeSVGViewerExtensions/3.0/"
	 x="0px" y="0px" width="47.8px" height="52.8px" viewBox="0 0 47.8 52.8" enable-background="new 0 0 47.8 52.8"
	 xml:space="preserve">
<defs>
</defs>
<g>
	<g>
		<g id="XMLID_3_">
			<g id="XMLID_4_">
				<g id="XMLID_5_">
					<path fill="#FFFFFF" d="M19.5,42.8c-0.7,0-1.3-0.2-1.9-0.5l-15-8.7c-1.1-0.6-1.9-2-1.9-3.2V13.1c0-1.2,0.8-2.6,1.9-3.2l15-8.7
						c1.1-0.6,2.7-0.6,3.7,0l15,8.7c1.1,0.6,1.9,2,1.9,3.2v17.4c0,1.2-0.8,2.6-1.9,3.2l-15,8.7C20.8,42.6,20.1,42.8,19.5,42.8z"/>
					<path fill="#006DB6" d="M19.5,43.5c-0.8,0-1.6-0.2-2.2-0.6l-15-8.7C0.9,33.5,0,31.9,0,30.4V13.1c0-1.5,0.9-3.1,2.2-3.8l15-8.7
						c1.3-0.7,3.1-0.7,4.4,0l15,8.7c1.3,0.7,2.2,2.3,2.2,3.8v17.4c0,1.5-0.9,3.1-2.2,3.8l-15,8.7C21.1,43.3,20.3,43.5,19.5,43.5z
						 M19.5,1.4c-0.5,0-1.1,0.1-1.5,0.4l-15,8.7c-0.8,0.5-1.5,1.6-1.5,2.6v17.4c0,1,0.7,2.1,1.5,2.6l15,8.7c0.8,0.5,2.2,0.5,3,0
						l15-8.7c0.8-0.5,1.5-1.6,1.5-2.6V13.1c0-1-0.7-2.1-1.5-2.6L21,1.8C20.5,1.5,20,1.4,19.5,1.4z"/>
				</g>
			</g>
		</g>
		<g id="XMLID_1_">
			<g id="XMLID_2_">
				<path fill="#FFFFFF" d="M31.7,13.7L21.1,7.5c-0.8-0.4-2-0.4-2.7,0L7.5,13.7c-0.8,0.4-1.6,1.5-1.6,2.4v12.3c0,0.9,0.6,2,1.3,2.4
					l2.8,1.6v-8.7h3.8v10.9l3.5,2V15.5h3.8v21.2l3.5-2v-15h3.8v12.8l3-1.6c0.8-0.4,1.5-1.5,1.5-2.4V16.1
					C33,15.2,32.5,14.1,31.7,13.7z"/>
				<path fill="#006DB6" d="M21.2,37.4c-0.1,0-0.2,0-0.4-0.1c-0.2-0.1-0.3-0.4-0.3-0.6V16.2h-2.4v20.5c0,0.3-0.1,0.5-0.3,0.6
					c-0.2,0.1-0.5,0.1-0.7,0l-3.5-2c-0.2-0.1-0.4-0.4-0.4-0.6V24.5h-2.4v8c0,0.3-0.1,0.5-0.4,0.6c-0.2,0.1-0.5,0.1-0.7,0l-2.8-1.6
					c-1-0.6-1.7-1.8-1.7-3V16.1c0-1.2,1-2.5,1.9-3L18,6.9c1-0.6,2.5-0.6,3.4,0l10.6,6.2c0.9,0.5,1.6,1.8,1.6,3v12.3
					c0,1.2-0.9,2.5-1.9,3l-3,1.6c-0.2,0.1-0.5,0.1-0.7,0c-0.2-0.1-0.3-0.4-0.3-0.6V20.3h-2.4v14.3c0,0.3-0.1,0.5-0.4,0.6l-3.5,2
					C21.5,37.3,21.3,37.4,21.2,37.4z M17.4,14.8h3.8c0.4,0,0.7,0.3,0.7,0.7v20l2.1-1.2V19.6c0-0.4,0.3-0.7,0.7-0.7h3.8
					c0.4,0,0.7,0.3,0.7,0.7v11.6l1.9-1.1c0.6-0.3,1.1-1.2,1.1-1.8V16.1c0-0.7-0.4-1.5-0.9-1.8c0,0,0,0,0,0L20.7,8.1
					c-0.5-0.3-1.5-0.3-2,0L7.8,14.3c-0.6,0.4-1.2,1.2-1.2,1.8v12.3c0,0.6,0.5,1.5,1,1.8l1.7,1v-7.5c0-0.4,0.3-0.7,0.7-0.7h3.8
					c0.4,0,0.7,0.3,0.7,0.7v10.5l2.1,1.2v-20C16.7,15.1,17,14.8,17.4,14.8z"/>
			</g>
		</g>
	</g>
	<g>
		<g>
			<g>
				<path fill="#FFFFFF" d="M22.3,52.8c-0.7,0-1.4-0.1-2.1-0.4c-1.3-0.6-2.3-1.6-2.8-2.9l-3.7-9.3c-0.5-1.3-0.5-2.7,0.1-4
					c0.6-1.3,1.6-2.3,2.9-2.8l5.8-2.3c0.9-1.8,2.7-2.9,4.7-2.9h7c2,0,3.9,1.2,4.7,3l5.6,2.1c2.7,1,4.1,4.1,3.1,6.8l-3.5,9.4
					c-0.5,1.3-1.5,2.4-2.8,2.9c-0.7,0.3-1.4,0.5-2.2,0.5c-0.6,0-1.3-0.1-1.8-0.3c0,0-6.6-2.5-6.7-2.5l-6.2,2.5
					C23.6,52.7,23,52.8,22.3,52.8z"/>
			</g>
		</g>
		<g>
			<g>
				<g>
					<g>
						<path fill="#FFFFFF" d="M31.3,43.9c0.6,1.4-0.1,3-1.5,3.6l-6.5,2.6c-1.4,0.6-3-0.1-3.6-1.5L16,39.3c-0.6-1.4,0.1-3,1.5-3.6
							l6.5-2.6c1.4-0.6,3,0.1,3.6,1.5L31.3,43.9z"/>
					</g>
					<g>
						<path fill="#006DB6" d="M22.3,51c-1.4,0-2.7-0.8-3.2-2.2l-3.7-9.3c-0.3-0.9-0.3-1.8,0-2.6c0.4-0.8,1-1.5,1.9-1.8l6.5-2.6
							c1.8-0.7,3.8,0.2,4.5,1.9l3.7,9.3l0,0c0.7,1.8-0.2,3.8-1.9,4.5l-6.5,2.6C23.1,50.9,22.7,51,22.3,51z M25,33.6
							c-0.3,0-0.5,0-0.8,0.1l-6.5,2.6c-0.5,0.2-0.9,0.6-1.1,1.1c-0.2,0.5-0.2,1.1,0,1.6l3.7,9.3c0.4,1,1.6,1.6,2.6,1.1l6.5-2.6
							c1-0.4,1.6-1.6,1.1-2.6l-3.7-9.3C26.6,34.1,25.8,33.6,25,33.6z"/>
					</g>
				</g>
				<g>
					<polygon fill="#006DB6" points="21.2,38.5 20.6,41 18.4,39.7 19,37.2 					"/>
				</g>
				<g>
					<g>
						<path fill="#FFFFFF" d="M36.8,43.4c0,1.5-1.2,2.7-2.7,2.7h-7c-1.5,0-2.7-1.2-2.7-2.7v-10c0-1.5,1.2-2.7,2.7-2.7h7
							c1.5,0,2.7,1.2,2.7,2.7V43.4z"/>
					</g>
					<g>
						<path fill="#006DB6" d="M34.1,46.8h-7c-1.9,0-3.4-1.5-3.4-3.4v-10c0-1.9,1.5-3.4,3.4-3.4h7c1.9,0,3.4,1.5,3.4,3.4v10
							C37.5,45.3,35.9,46.8,34.1,46.8z M27.1,31.4c-1.1,0-2,0.9-2,2v10c0,1.1,0.9,2,2,2h7c1.1,0,2-0.9,2-2v-10c0-1.1-0.9-2-2-2H27.1
							z"/>
					</g>
				</g>
				<g>
					<g>
						<path fill="#FFFFFF" d="M41.5,48.4C41,49.9,39.4,50.6,38,50l-6.5-2.4c-1.4-0.5-2.1-2.1-1.6-3.5l3.5-9.4
							c0.5-1.4,2.1-2.1,3.5-1.6l6.5,2.4c1.4,0.5,2.1,2.1,1.6,3.5L41.5,48.4z"/>
					</g>
					<g>
						<path fill="#006DB6" d="M39,50.9c-0.4,0-0.8-0.1-1.2-0.2l-6.5-2.4c-1.8-0.7-2.7-2.7-2-4.4l3.5-9.4c0.3-0.9,1-1.5,1.8-1.9
							c0.8-0.4,1.8-0.4,2.6-0.1l6.5,2.4c0.9,0.3,1.5,1,1.9,1.8s0.4,1.8,0.1,2.6l-3.5,9.3l0,0C41.7,50.1,40.4,50.9,39,50.9z M36,33.6
							c-0.3,0-0.6,0.1-0.8,0.2c-0.5,0.2-0.9,0.6-1.1,1.1l-3.5,9.4c-0.4,1.1,0.1,2.2,1.2,2.6l6.5,2.4c0.5,0.2,1.1,0.2,1.6-0.1
							c0.5-0.2,0.9-0.6,1.1-1.1l3.5-9.4c0.2-0.5,0.2-1.1-0.1-1.6c-0.2-0.5-0.6-0.9-1.1-1.1l-6.5-2.4C36.5,33.7,36.2,33.6,36,33.6z
							 M41.5,48.4L41.5,48.4L41.5,48.4z"/>
					</g>
				</g>
				<g>
					<path fill="#006DB6" d="M37.3,36.7c-0.1,0-0.1,0-0.2,0c0.2-0.1,0.3-0.3,0.4-0.5c0.2-0.5-0.1-1-0.5-1.1c-0.5-0.2-1,0.1-1.1,0.5
						c-0.1,0.2-0.1,0.5,0,0.7c-0.1,0-0.1-0.1-0.2-0.1c-0.5-0.2-1,0.1-1.1,0.5c-0.2,0.5,0.1,1,0.5,1.1c0.2,0.1,0.5,0.1,0.7,0
						c0,0.1-0.2,0.6-0.7,0.8l0.3,0.1l0.6,0.2l0.3,0.1c-0.2-0.4,0-1,0-1.1c0.1,0.2,0.3,0.4,0.5,0.5c0.5,0.2,1-0.1,1.1-0.5
						C38,37.4,37.7,36.9,37.3,36.7z"/>
				</g>
			</g>
			<g>
				<path fill="#006DB6" d="M28.9,33.8c0,0-1-1-1.1-1.3c-0.1,0.3-1.1,1.3-1.1,1.3c-1.2,1-0.6,1.9-0.6,1.9c0.4,0.5,1.1,0.3,1.4,0.1
					c0,0.2-0.1,0.7-0.4,1h0.3h0.7h0.3c-0.3-0.3-0.4-0.8-0.4-1c0.3,0.1,1,0.4,1.4-0.1C29.5,35.7,30.1,34.9,28.9,33.8z"/>
			</g>
		</g>
	</g>
</g>
</svg>
