<!-- Generator: Adobe Illustrator 19.1.0, SVG Export Plug-In  -->
<svg version="1.1"
	 xmlns="http://www.w3.org/2000/svg" xmlns:xlink="http://www.w3.org/1999/xlink" xmlns:a="http://ns.adobe.com/AdobeSVGViewerExtensions/3.0/"
	 x="0px" y="0px" width="56px" height="38.7px" viewBox="0 0 56 38.7" enable-background="new 0 0 56 38.7" xml:space="preserve">
<defs>
</defs>
<g>
	<g>
		<circle fill="#FFFFFF" cx="45.8" cy="13.6" r="5.9"/>
		<path fill="#166E9E" d="M45.8,20.2c-3.6,0-6.6-3-6.6-6.6c0-3.6,3-6.6,6.6-6.6c3.6,0,6.6,3,6.6,6.6C52.4,17.2,49.4,20.2,45.8,20.2z
			 M45.8,8.5c-2.8,0-5.1,2.3-5.1,5.1s2.3,5.1,5.1,5.1c2.8,0,5.1-2.3,5.1-5.1S48.6,8.5,45.8,8.5z"/>
	</g>
	<g>
		<path fill="#FFFFFF" d="M41.5,23c1.4-0.8,3-1.2,4.7-1.2c5.7,0,9.9,4.6,9.9,10.3v4.6H44"/>
		<path fill="#166E9E" d="M55.6,37.7h-12c-0.4,0-0.8-0.1-0.8-0.5s0.3-0.5,0.8-0.5H55v-4.6c0-5.4-3.9-9.4-9.1-9.4
			c-1.3,0-2.7,0.4-4.3,1.3c-0.4,0.2-0.8,0.1-1-0.3c-0.2-0.4-0.1-0.8,0.3-1c1.2-0.7,2.7-1.4,4.8-1.4c6,0,10.3,4.7,10.3,10.9v5.1
			C56,37.6,56,37.7,55.6,37.7z"/>
	</g>
	<g>
		<g>
			<circle fill="#FFFFFF" cx="10.4" cy="13.2" r="6"/>
			<path fill="#166E9E" d="M10.4,19.9c-3.7,0-6.7-3-6.7-6.7s3-6.7,6.7-6.7s6.7,3,6.7,6.7S14.1,19.9,10.4,19.9z M10.4,8
				c-2.9,0-5.2,2.3-5.2,5.2s2.3,5.2,5.2,5.2s5.2-2.3,5.2-5.2S13.3,8,10.4,8z"/>
		</g>
		<g>
			<path fill="#FFFFFF" d="M13,36.7H1V32c0-5.8,3.9-10.5,9.7-10.5c1.6,0,3.1,0.5,4.4,1.1"/>
			<path fill="#166E9E" d="M12.8,37.7h-12c-0.4,0-0.8-0.1-0.8-0.5V32c0-6.4,4.5-11.2,10.6-11.2c1.8,0,3.4,0.8,4.7,1.5
				c0.4,0.2,0.5,0.6,0.3,1c-0.2,0.4-0.6,0.5-1,0.3c-1.3-0.6-2.3-1.3-3.8-1.3C5.7,22.3,2,26.5,2,32v4.6h10.8c0.4,0,0.8,0.1,0.8,0.5
				S13.2,37.7,12.8,37.7z"/>
		</g>
	</g>
	<g>
		<circle fill="#FFFFFF" cx="27.9" cy="8.1" r="7.4"/>
		<path fill="#166E9E" d="M27.9,16.2c-4.5,0-8.1-3.6-8.1-8.1c0-4.5,3.6-8.1,8.1-8.1S36,3.6,36,8.1C36,12.6,32.4,16.2,27.9,16.2z
			 M27.9,1.5c-3.6,0-6.6,3-6.6,6.6c0,3.6,3,6.6,6.6,6.6s6.6-3,6.6-6.6C34.5,4.5,31.6,1.5,27.9,1.5z"/>
	</g>
	<g>
		<path fill="#FFFFFF" d="M20.6,7.5c0,0,5.3,1.5,10.1-2.8c0,0,2.3,2.3,4.5,2.5"/>
		<path fill="#166E9E" d="M23,8.6c-1.5,0-2.5-0.3-2.6-0.3c-0.4-0.1-0.6-0.5-0.5-0.9c0.1-0.4,0.5-0.6,0.9-0.5c0.2,0.1,5,1.4,9.4-2.6
			c0.3-0.3,0.8-0.3,1,0c0,0,2.1,2.1,4,2.3c0.4,0,0.7,0.4,0.7,0.8C36,7.7,35.6,8,35.2,8c-1.8-0.1-3.6-1.5-4.5-2.2
			C27.9,8.1,25,8.6,23,8.6z"/>
	</g>
	<g>
		<path fill="#FFFFFF" d="M41,31.3v6.3H16v-6.3c0-7.1,5.4-12.9,12.5-12.9C35.6,18.4,41,24.2,41,31.3z"/>
		<path fill="#166E9E" d="M40.6,38.7H15.8c-0.4,0-0.8-0.3-0.8-0.8v-6.6c0-7.7,5.6-13.7,13-13.7c7.4,0,13,6,13,13.7v6.6
			C41,38.3,41,38.7,40.6,38.7z M17,36.7h23v-5.3c0-6.8-5-12.2-11.5-12.2C22,19.1,17,24.5,17,31.3V36.7z"/>
	</g>
</g>
</svg>
