<!-- Generator: Adobe Illustrator 19.1.0, SVG Export Plug-In  -->
<svg version="1.1"
	 xmlns="http://www.w3.org/2000/svg" xmlns:xlink="http://www.w3.org/1999/xlink" xmlns:a="http://ns.adobe.com/AdobeSVGViewerExtensions/3.0/"
	 x="0px" y="0px" width="59.4px" height="38.5px" viewBox="0 0 59.4 38.5" enable-background="new 0 0 59.4 38.5"
	 xml:space="preserve">
<defs>
</defs>
<g>
	<g>
		<path fill="#006DB6" d="M52.9,33.9H6.6c-0.4,0-0.8-0.3-0.8-0.8V1.5C5.8,0.7,6.5,0,7.3,0h44.8c0.8,0,1.5,0.7,1.5,1.5v31.6
			C53.7,33.6,53.3,33.9,52.9,33.9z M7.3,32.4h44.8V1.5H7.3V32.4z"/>
	</g>
	<g>
		<path fill="#006DB6" d="M58.7,38.5H0.8c-0.4,0-0.8-0.3-0.8-0.8v-4.6c0-0.4,0.3-0.8,0.8-0.8h57.9c0.4,0,0.8,0.3,0.8,0.8v4.6
			C59.4,38.2,59.1,38.5,58.7,38.5z M1.5,37h56.4v-3H1.5V37z"/>
	</g>
	<g>
		<g>
			<path fill="#006DB6" d="M48.3,29.1H11.1c-0.4,0-0.8-0.3-0.8-0.8V4.9c0-0.4,0.3-0.8,0.8-0.8h37.2c0.4,0,0.8,0.3,0.8,0.8v23.4
				C49.1,28.7,48.7,29.1,48.3,29.1z M11.9,27.5h35.6V5.7H11.9V27.5z"/>
		</g>
		<g>
			<path fill="#006DB6" d="M48.3,10H11.1c-0.4,0-0.8-0.3-0.8-0.8s0.3-0.8,0.8-0.8h37.2c0.4,0,0.8,0.3,0.8,0.8S48.7,10,48.3,10z"/>
		</g>
		<g>
			<path fill="#006DB6" d="M25.4,25.2h-9.7c-0.4,0-0.8-0.3-0.8-0.8V12.6c0-0.4,0.3-0.8,0.8-0.8h9.7c0.4,0,0.8,0.3,0.8,0.8
				s-0.3,0.8-0.8,0.8h-8.9v10.3h8.1v-8.1c0-0.4,0.3-0.8,0.8-0.8s0.8,0.3,0.8,0.8v8.9C26.1,24.8,25.8,25.2,25.4,25.2z"/>
		</g>
		<g>
			<path fill="#006DB6" d="M43.8,13.9h-12c-0.4,0-0.8-0.3-0.8-0.8s0.3-0.8,0.8-0.8h12c0.4,0,0.8,0.3,0.8,0.8S44.2,13.9,43.8,13.9z"
				/>
		</g>
		<g>
			<path fill="#006DB6" d="M43.8,17.7h-12c-0.4,0-0.8-0.3-0.8-0.8s0.3-0.8,0.8-0.8h12c0.4,0,0.8,0.3,0.8,0.8S44.2,17.7,43.8,17.7z"
				/>
		</g>
		<g>
			<path fill="#006DB6" d="M38.1,22.2h-6.4c-0.4,0-0.8-0.3-0.8-0.8s0.3-0.8,0.8-0.8h6.4c0.4,0,0.8,0.3,0.8,0.8S38.6,22.2,38.1,22.2z
				"/>
		</g>
		<g>
			<circle cx="15.1" cy="7.2" r="0.8"/>
			<path fill="#006DB6" d="M15.1,8.4c-0.7,0-1.2-0.5-1.2-1.2S14.5,6,15.1,6c0.7,0,1.2,0.5,1.2,1.2S15.8,8.4,15.1,8.4z M15.1,6.8
				c-0.2,0-0.4,0.2-0.4,0.4s0.2,0.4,0.4,0.4c0.2,0,0.4-0.2,0.4-0.4S15.3,6.8,15.1,6.8z"/>
		</g>
		<g>
			<circle cx="18.1" cy="7.2" r="0.8"/>
			<path fill="#006DB6" d="M18.1,8.4c-0.7,0-1.2-0.5-1.2-1.2S17.5,6,18.1,6s1.2,0.5,1.2,1.2S18.8,8.4,18.1,8.4z M18.1,6.8
				c-0.2,0-0.4,0.2-0.4,0.4s0.2,0.4,0.4,0.4s0.4-0.2,0.4-0.4S18.3,6.8,18.1,6.8z"/>
		</g>
		<g>
			<circle cx="21.1" cy="7.2" r="0.8"/>
			<path fill="#006DB6" d="M21.1,8.4c-0.7,0-1.2-0.5-1.2-1.2S20.5,6,21.1,6c0.7,0,1.2,0.5,1.2,1.2S21.8,8.4,21.1,8.4z M21.1,6.8
				c-0.2,0-0.4,0.2-0.4,0.4s0.2,0.4,0.4,0.4c0.2,0,0.4-0.2,0.4-0.4S21.3,6.8,21.1,6.8z"/>
		</g>
		<g>
			<path fill="#006DB6" d="M15.7,21.2c-0.3,0-0.6-0.2-0.7-0.4c-0.2-0.4,0-0.8,0.3-1l3.8-1.9c0.2-0.1,0.5-0.1,0.8,0l2.6,1.7l2.6-0.8
				c0.4-0.1,0.8,0.1,1,0.5c0.1,0.4-0.1,0.8-0.5,1l-3,1c-0.2,0.1-0.5,0-0.7-0.1l-2.6-1.7l-3.4,1.7C15.9,21.2,15.8,21.2,15.7,21.2z"/>
		</g>
	</g>
</g>
</svg>
