<!-- Generator: Adobe Illustrator 19.1.0, SVG Export Plug-In  -->
<svg version="1.1"
	 xmlns="http://www.w3.org/2000/svg" xmlns:xlink="http://www.w3.org/1999/xlink" xmlns:a="http://ns.adobe.com/AdobeSVGViewerExtensions/3.0/"
	 x="0px" y="0px" width="43.2px" height="44.8px" viewBox="0 0 43.2 44.8" enable-background="new 0 0 43.2 44.8"
	 xml:space="preserve">
<defs>
</defs>
<g>
	<g>
		<g>
			<path fill="#006DB6" d="M18.4,38.6c-0.8,0-1.7-0.1-2.5-0.2c-0.3,0-0.5-0.2-0.7-0.5l-2.3-4.7c-1.1-0.4-2.1-1-3.1-1.6l-5.1,0.8
				c-0.3,0-0.6-0.1-0.8-0.3c-0.9-1-1.7-2.1-2.3-3.2c-0.4-0.7-0.8-1.4-1.1-2.2c-0.1-0.3-0.1-0.6,0.1-0.8l2.9-4.3
				c-0.2-1.2-0.2-2.3-0.1-3.5L0.2,14C0,13.8,0,13.5,0,13.2c0.7-2,1.7-3.9,3-5.6c0.2-0.2,0.5-0.4,0.8-0.3l5.2,0.4
				c0.6-0.5,1.3-0.9,1.9-1.3c0.3-0.2,0.7-0.4,1-0.5l1.9-4.8c0.1-0.3,0.3-0.5,0.6-0.5c2.1-0.4,4.2-0.5,6.4-0.2c0.3,0,0.5,0.2,0.7,0.5
				l2.3,4.6c1.1,0.4,2.1,1,3.1,1.6L32,6.2c0.3,0,0.6,0.1,0.8,0.3c0.9,1,1.7,2.1,2.3,3.2c0.4,0.7,0.8,1.4,1.1,2.2
				c0.1,0.3,0.1,0.6-0.1,0.8l-1.4,2.1c-0.3,0.4-0.8,0.5-1.2,0.2c-0.4-0.3-0.5-0.8-0.2-1.2l1.2-1.7c-0.2-0.5-0.5-1-0.8-1.5
				C33,9.6,32.4,8.8,31.7,8l-5,0.7c-0.2,0-0.5,0-0.6-0.2c-1-0.7-2.1-1.3-3.3-1.7c-0.2-0.1-0.4-0.2-0.5-0.4l-2.2-4.5
				c-1.6-0.2-3.3-0.1-4.9,0.2l-1.9,4.7c-0.1,0.2-0.3,0.4-0.5,0.5c-0.4,0.2-0.8,0.4-1.2,0.6c-0.7,0.4-1.4,0.9-2,1.4
				C9.6,9.3,9.4,9.4,9.2,9.4L4.1,9c-1,1.3-1.7,2.8-2.3,4.3l3.1,4c0.1,0.2,0.2,0.4,0.2,0.6c-0.1,1.2-0.1,2.5,0.1,3.7
				c0,0.2,0,0.5-0.1,0.6l-2.8,4.2c0.2,0.5,0.5,1,0.8,1.5c0.5,0.9,1.1,1.8,1.8,2.6l5-0.7c0.2,0,0.5,0,0.6,0.2c1,0.7,2.1,1.3,3.3,1.7
				c0.2,0.1,0.4,0.2,0.5,0.4l2.2,4.5c0.9,0.1,1.8,0.1,2.6,0.1c0.5,0,0.9,0.4,0.9,0.8c0,0.5-0.4,0.9-0.8,0.9
				C19,38.6,18.7,38.6,18.4,38.6z"/>
		</g>
		<g>
			<path fill="#006DB6" d="M18.3,29.5c-3.5,0-6.8-1.9-8.5-4.9c-2.7-4.7-1.1-10.7,3.6-13.4c4.6-2.6,10.3-1.2,13.2,3.2
				c0.3,0.4,0.1,1-0.3,1.2c-0.4,0.3-1,0.1-1.2-0.3c-2.3-3.6-7.1-4.8-10.8-2.6c-3.9,2.2-5.2,7.2-3,11c1.6,2.8,4.7,4.4,7.9,4
				c0.5-0.1,0.9,0.3,1,0.8c0.1,0.5-0.3,0.9-0.8,1C19.1,29.5,18.7,29.5,18.3,29.5z"/>
		</g>
	</g>
	<g>
		<g>
			<path fill="#FFFFFF" d="M41.3,43.9H23.5c-0.6,0-1-0.4-1-1V18.8c0-0.6,0.4-1,1-1h17.8c0.6,0,1,0.4,1,1v24.1
				C42.3,43.4,41.9,43.9,41.3,43.9z"/>
			<path fill="#006DB6" d="M41.5,44.8h-18c-1,0-1.8-0.8-1.8-1.8V18.6c0-1,0.8-1.8,1.8-1.8h18c1,0,1.8,0.8,1.8,1.8V43
				C43.2,44,42.4,44.8,41.5,44.8z M23.4,18.6V43h18l0-24.4H23.4z"/>
		</g>
		<g>
			<g>
				<path fill="#006DB6" d="M37.9,24.3h-11c-0.5,0-0.9-0.4-0.9-0.9c0-0.5,0.4-0.9,0.9-0.9h11c0.5,0,0.9,0.4,0.9,0.9
					C38.8,23.9,38.4,24.3,37.9,24.3z"/>
			</g>
			<g>
				<path fill="#006DB6" d="M37.9,28h-11c-0.5,0-0.9-0.4-0.9-0.9c0-0.5,0.4-0.9,0.9-0.9h11c0.5,0,0.9,0.4,0.9,0.9
					C38.8,27.6,38.4,28,37.9,28z"/>
			</g>
			<g>
				<path fill="#006DB6" d="M37.9,31.6h-11c-0.5,0-0.9-0.4-0.9-0.9s0.4-0.9,0.9-0.9h11c0.5,0,0.9,0.4,0.9,0.9S38.4,31.6,37.9,31.6z"
					/>
			</g>
			<g>
				<path fill="#006DB6" d="M37.9,38.9h-4.6c-0.5,0-0.9-0.4-0.9-0.9c0-0.5,0.4-0.9,0.9-0.9h4.6c0.5,0,0.9,0.4,0.9,0.9
					C38.8,38.5,38.4,38.9,37.9,38.9z"/>
			</g>
		</g>
	</g>
</g>
</svg>
