<svg style="display: none;"><symbol viewBox="0 0 27.8 27.8" id="shape-flex-next"><title>flex-next</title>  <path fill="#006DB6" d="M12,18.6c0.3,0.3,0.7,0.3,1,0l4.1-4.1c0.3-0.3,0.3-0.8,0-1l-4.1-4.1c-0.3-0.3-0.7-0.3-1,0
	c-0.3,0.3-0.3,0.8,0,1l3.3,3.6L12,17.5C11.7,17.8,11.7,18.3,12,18.6z M13.9,27.8c7.7,0,13.9-6.2,13.9-13.9S21.6,0,13.9,0
	C6.2,0,0,6.2,0,13.9C0,21.6,6.2,27.8,13.9,27.8z M13.9,26C7.2,26,1.8,20.6,1.8,13.9c0-6.7,5.4-12.1,12.1-12.1S26,7.2,26,13.9
	C26,20.6,20.6,26,13.9,26z"/> </symbol><symbol viewBox="0 0 27.8 27.8" id="shape-flex-prev"><title>flex-prev</title>  <path fill="#006DB6" d="M15.8,9.2c-0.3-0.3-0.7-0.3-1,0l-4.1,4.1c-0.3,0.3-0.3,0.8,0,1l4.1,4.1c0.3,0.3,0.7,0.3,1,0
	c0.3-0.3,0.3-0.8,0-1l-3.3-3.6l3.3-3.6C16.1,10,16.1,9.5,15.8,9.2z M13.9,0C6.2,0,0,6.2,0,13.9c0,7.7,6.2,13.9,13.9,13.9
	c7.7,0,13.9-6.2,13.9-13.9S21.6,0,13.9,0z M13.9,1.8C20.6,1.8,26,7.2,26,13.9C26,20.6,20.6,26,13.9,26S1.8,20.6,1.8,13.9
	C1.8,7.2,7.2,1.8,13.9,1.8z"/> </symbol><symbol viewBox="0 0 28 28" id="shape-icon-facebook"><title>icon-facebook</title>  <path fill="#3A5986" d="M14,0C6.3,0,0,6.3,0,14s6.3,14,14,14s14-6.3,14-14S21.7,0,14,0z M17.3,9.7h-2.1c-0.2,0-0.5,0.3-0.5,0.8V12
	h2.6l-0.4,2.2h-2.2v6.5h-2.5v-6.5H9.9V12h2.3v-1.3c0-1.8,1.3-3.3,3-3.3h2.1V9.7z"/> </symbol><symbol viewBox="0 0 28 28" id="shape-icon-linkedin"><title>icon-linkedin</title>  <path fill="#0277A5" d="M14,0C6.3,0,0,6.3,0,14s6.3,14,14,14s14-6.3,14-14S21.7,0,14,0z M10.6,19.8H7.7v-9.1h2.8V19.8z M9.1,9.6
	c-0.9,0-1.5-0.6-1.5-1.4c0-0.8,0.6-1.4,1.5-1.4c0.9,0,1.5,0.6,1.5,1.4C10.7,8.9,10.1,9.6,9.1,9.6z M20.9,19.8h-2.8v-5.1
	c0-1.2-0.4-2-1.4-2c-0.8,0-1.2,0.5-1.5,1.1c-0.1,0.2-0.1,0.4-0.1,0.7v5.3h-2.8v-6.2c0-1.1,0-2.1-0.1-2.9h2.5l0.1,1.3h0.1
	c0.4-0.6,1.3-1.5,2.8-1.5c1.9,0,3.3,1.2,3.3,3.9V19.8z"/> </symbol><symbol viewBox="0 0 32 32" id="shape-icon-mail"><title>icon-mail</title> <path fill="#006DB6" d="M16,0C7.2,0,0,7.2,0,16s7.2,16,16,16s16-7.2,16-16S24.8,0,16,0z"/> <path fill="white" d="M7.6,11.3c0.5,0.3,7.2,3.9,7.5,4c0.3,0.1,0.6,0.2,0.9,0.2c0.3,0,0.7-0.1,0.9-0.2c0.3-0.1,7-3.8,7.5-4
	c0.5-0.3,1-1.3,0.1-1.3H7.5C6.6,10,7.1,11,7.6,11.3z M24.6,13.5c-0.6,0.3-7.4,3.8-7.7,4c-0.3,0.2-0.6,0.2-0.9,0.2
	c-0.3,0-0.6,0-0.9-0.2c-0.3-0.2-7.1-3.7-7.7-4C7,13.3,7,13.5,7,13.7S7,21,7,21c0,0.4,0.6,1,1,1h16c0.4,0,1-0.6,1-1c0,0,0-7.1,0-7.3
	S25,13.3,24.6,13.5z"/> </symbol><symbol viewBox="0 0 36.4 31.1" id="shape-icon-quote"><title>icon-quote</title>  <g> <path fill="#006DB6" d="M0,20.3c0-2.2,0.4-4.3,1.2-6.4S3,10,4.4,8.2C5.7,6.5,7.2,4.9,9,3.5c1.8-1.4,3.6-2.6,5.5-3.5l2.6,3.2
		c-1.9,1.7-3.6,3.5-5.1,5.5c-1.4,2-2.2,3.9-2.2,5.8c0,1.1,0.2,1.9,0.7,2.3c0.5,0.4,1.1,0.8,1.8,1.3c0.8,0.6,1.6,1.4,2.3,2.4
		c0.7,1,1,2.2,1,3.7c0,2.1-0.7,3.7-2,5c-1.3,1.3-3.1,2-5.2,2c-2.4,0-4.4-0.9-6.1-2.8C0.8,26.4,0,23.7,0,20.3z M19.3,20.3
		c0-2.2,0.4-4.3,1.2-6.4c0.8-2,1.9-3.9,3.2-5.7c1.3-1.7,2.9-3.3,4.6-4.7c1.8-1.4,3.6-2.6,5.5-3.5l2.6,3.2c-1.9,1.7-3.6,3.5-5.1,5.5
		c-1.4,2-2.2,3.9-2.2,5.8c0,1.1,0.3,1.9,0.8,2.3c0.5,0.4,1.1,0.8,1.8,1.3c0.8,0.6,1.6,1.4,2.3,2.4c0.7,1,1,2.2,1,3.7
		c0,2.1-0.7,3.7-2,5c-1.3,1.3-3.1,2-5.2,2c-2.4,0-4.4-0.9-6.1-2.8C20.2,26.4,19.3,23.7,19.3,20.3z"/> </g> </symbol><symbol viewBox="0 0 28 28" id="shape-icon-twitter"><title>icon-twitter</title>  <path fill="#559CDF" d="M14,0C6.3,0,0,6.3,0,14s6.3,14,14,14s14-6.3,14-14S21.7,0,14,0z M19.7,11.5c0,0.1,0,0.2,0,0.4
	c0,3.6-2.8,7.8-7.8,7.8c-1.6,0-3-0.5-4.2-1.2c0.2,0,0.4,0,0.7,0c1.3,0,2.5-0.4,3.4-1.2c-1.2,0-2.2-0.8-2.6-1.9c0.2,0,0.3,0,0.5,0
	c0.3,0,0.5,0,0.7-0.1c-1.3-0.3-2.2-1.4-2.2-2.7v0c0.4,0.2,0.8,0.3,1.2,0.3c-0.7-0.5-1.2-1.3-1.2-2.3c0-0.5,0.1-1,0.4-1.4
	c1.4,1.7,3.4,2.8,5.7,2.9c0-0.2-0.1-0.4-0.1-0.6c0-1.5,1.2-2.8,2.8-2.8c0.8,0,1.5,0.3,2,0.9c0.6-0.1,1.2-0.4,1.8-0.7
	c-0.2,0.6-0.6,1.2-1.2,1.5c0.6-0.1,1.1-0.2,1.6-0.4C20.7,10.6,20.2,11.1,19.7,11.5z"/> </symbol><symbol viewBox="0 0 20.9 20.9" id="shape-icon-volver"><title>icon-volver</title> <path d="M11.9,7c-0.2-0.2-0.6-0.2-0.8,0l-3.1,3.1c-0.2,0.2-0.2,0.6,0,0.8l3.1,3.1c0.2,0.2,0.6,0.2,0.8,0
	c0.2-0.2,0.2-0.6,0-0.8l-2.5-2.7l2.5-2.7C12.1,7.5,12.1,7.2,11.9,7z M10.5,0C4.7,0,0,4.7,0,10.5s4.7,10.5,10.5,10.5
	c5.8,0,10.5-4.7,10.5-10.5S16.3,0,10.5,0z M10.5,1.4c5,0,9.1,4.1,9.1,9.1c0,5-4.1,9.1-9.1,9.1s-9.1-4.1-9.1-9.1
	C1.4,5.4,5.4,1.4,10.5,1.4z"/> </symbol><symbol viewBox="0 0 28.2 28.2" id="shape-share-facebook"><title>share-facebook</title>  <g id="share-facebook-Nuevo_s&#xED;mbolo_1_copia"> <path d="M14.1,0C6.3,0,0,6.3,0,14.1s6.3,14.1,14.1,14.1s14.1-6.3,14.1-14.1S21.9,0,14.1,0z M17.4,9.7h-2.1
		c-0.3,0-0.5,0.3-0.5,0.8V12h2.6L17,14.2h-2.2v6.5h-2.5v-6.5H10V12h2.3v-1.3c0-1.8,1.3-3.3,3-3.3h2.1V9.7z"/> </g> </symbol><symbol viewBox="0 0 28.2 28.2" id="shape-share-instagram"><title>share-instagram</title>  <g id="share-instagram-Nuevo_s&#xED;mbolo_1_copia"> <g> <circle cx="14.1" cy="14.1" r="2.1"/> <path d="M19.6,9.8c-0.1-0.3-0.2-0.5-0.5-0.7c-0.2-0.2-0.4-0.4-0.7-0.5c-0.2-0.1-0.6-0.2-1.3-0.2c-0.8,0-1,0-3,0
			c-2,0-2.2,0-3,0c-0.7,0-1,0.1-1.3,0.2C9.5,8.7,9.3,8.9,9.1,9.1C8.9,9.3,8.7,9.5,8.6,9.8c-0.1,0.2-0.2,0.6-0.2,1.3c0,0.8,0,1,0,3
			c0,2,0,2.2,0,3c0,0.7,0.1,1,0.2,1.3c0.1,0.3,0.2,0.5,0.5,0.7c0.2,0.2,0.4,0.4,0.7,0.5c0.2,0.1,0.6,0.2,1.3,0.2c0.8,0,1,0,3,0
			c2,0,2.2,0,3,0c0.7,0,1-0.1,1.3-0.2c0.3-0.1,0.5-0.2,0.7-0.5c0.2-0.2,0.4-0.4,0.5-0.7c0.1-0.2,0.2-0.6,0.2-1.3c0-0.8,0-1,0-3
			c0-2,0-2.2,0-3C19.8,10.4,19.6,10.1,19.6,9.8z M14.1,18.3c-2.3,0-4.2-1.9-4.2-4.2s1.9-4.2,4.2-4.2s4.2,1.9,4.2,4.2
			S16.4,18.3,14.1,18.3z M18.1,11c-0.5,0-0.9-0.4-0.9-0.9c0-0.5,0.4-0.9,0.9-0.9S19,9.6,19,10.1C19,10.6,18.6,11,18.1,11z"/> <path d="M14.1,0C6.3,0,0,6.3,0,14.1s6.3,14.1,14.1,14.1c7.8,0,14.1-6.3,14.1-14.1S21.9,0,14.1,0z M21.9,17.2
			c0,0.8-0.2,1.4-0.4,1.9c-0.2,0.6-0.5,1-0.9,1.5c-0.4,0.4-0.9,0.7-1.5,0.9c-0.6,0.2-1.2,0.3-1.9,0.4c-0.8,0-1.1,0-3.1,0
			s-2.3,0-3.1,0c-0.8,0-1.4-0.1-1.9-0.4c-0.6-0.2-1-0.5-1.5-0.9c-0.4-0.4-0.7-0.9-0.9-1.5c-0.2-0.6-0.3-1.2-0.4-1.9
			c0-0.8,0-1.1,0-3.1c0-2,0-2.3,0-3.1c0-0.8,0.1-1.4,0.4-1.9c0.2-0.6,0.5-1,0.9-1.5C8,7.2,8.5,6.9,9.1,6.7c0.6-0.2,1.2-0.3,1.9-0.4
			c0.8,0,1.1,0,3.1,0s2.3,0,3.1,0c0.8,0,1.4,0.1,1.9,0.4c0.6,0.2,1,0.5,1.5,0.9C21,8,21.3,8.5,21.5,9.1c0.2,0.6,0.3,1.2,0.4,1.9
			c0,0.8,0,1.1,0,3.1C21.9,16.1,21.9,16.4,21.9,17.2z"/> </g> </g> </symbol><symbol viewBox="0 0 28.2 28.2" id="shape-share-linkedin"><title>share-linkedin</title>  <g id="share-linkedin-Nuevo_s&#xED;mbolo_1_copia"> <path d="M14.1,0C6.3,0,0,6.3,0,14.1s6.3,14.1,14.1,14.1s14.1-6.3,14.1-14.1S21.9,0,14.1,0z M10.6,19.9H7.8v-9.2h2.9
		V19.9z M9.2,9.6C8.3,9.6,7.7,9,7.7,8.2c0-0.8,0.6-1.4,1.5-1.4s1.5,0.6,1.5,1.4C10.7,9,10.2,9.6,9.2,9.6z M21.1,19.9h-2.9v-5.1
		c0-1.2-0.4-2-1.4-2c-0.8,0-1.3,0.5-1.5,1.1c-0.1,0.2-0.1,0.5-0.1,0.7v5.3h-2.9v-6.3c0-1.1,0-2.1-0.1-2.9h2.5l0.1,1.3h0.1
		c0.4-0.6,1.3-1.5,2.8-1.5c1.9,0,3.3,1.3,3.3,4V19.9z"/> </g> </symbol><symbol viewBox="0 0 28 28" id="shape-share-twitter"><title>share-twitter</title>  <g id="share-twitter-Nuevo_s&#xED;mbolo_1_copia"> <path d="M14,0C6.3,0,0,6.3,0,14s6.3,14,14,14s14-6.3,14-14S21.7,0,14,0z M19.7,11.5c0,0.1,0,0.2,0,0.4
		c0,3.6-2.8,7.8-7.8,7.8c-1.6,0-3-0.5-4.2-1.2c0.2,0,0.4,0,0.7,0c1.3,0,2.5-0.4,3.4-1.2c-1.2,0-2.2-0.8-2.6-1.9c0.2,0,0.3,0,0.5,0
		c0.3,0,0.5,0,0.7-0.1c-1.3-0.3-2.2-1.4-2.2-2.7v0c0.4,0.2,0.8,0.3,1.2,0.3c-0.7-0.5-1.2-1.3-1.2-2.3c0-0.5,0.1-1,0.4-1.4
		c1.4,1.7,3.4,2.8,5.7,2.9c0-0.2-0.1-0.4-0.1-0.6c0-1.5,1.2-2.8,2.8-2.8c0.8,0,1.5,0.3,2,0.9c0.6-0.1,1.2-0.4,1.8-0.7
		c-0.2,0.6-0.6,1.2-1.2,1.5c0.6-0.1,1.1-0.2,1.6-0.4C20.7,10.6,20.2,11.1,19.7,11.5z"/> </g> </symbol><symbol viewBox="0 0 28 28" id="shape-share-youtube"><title>share-youtube</title>  <g id="share-youtube-Nuevo_s&#xED;mbolo_1_copia"> <path d="M16.3,13.8l-3.3-1.5c-0.3-0.1-0.5,0-0.5,0.3v2.9c0,0.3,0.2,0.5,0.5,0.3l3.3-1.5
		C16.6,14.1,16.6,13.9,16.3,13.8z M14,0C6.3,0,0,6.3,0,14s6.3,14,14,14s14-6.3,14-14S21.7,0,14,0z M14,19.7c-7.2,0-7.3-0.6-7.3-5.7
		S6.8,8.3,14,8.3S21.3,9,21.3,14S21.2,19.7,14,19.7z"/> </g> </symbol></svg>