<!-- Generator: Adobe Illustrator 19.1.0, SVG Export Plug-In  -->
<svg version="1.1"
	 xmlns="http://www.w3.org/2000/svg" xmlns:xlink="http://www.w3.org/1999/xlink" xmlns:a="http://ns.adobe.com/AdobeSVGViewerExtensions/3.0/"
	 x="0px" y="0px" width="59.2px" height="43.3px" viewBox="0 0 59.2 43.3" enable-background="new 0 0 59.2 43.3"
	 xml:space="preserve">
<defs>
</defs>
<g>
	<path fill="#006DB6" d="M39.5,16.2L39.5,16.2L35,15.3c-0.5-0.1-0.9,0.2-1,0.7c-0.1,0.5,0.2,0.9,0.7,1l2.5,0.5l-14.4,9.9l-5.3-3.2
		L5.8,33.9c-0.3,0.3-0.4,0.8-0.1,1.2c0.1,0.2,0.4,0.3,0.7,0.3c0.2,0,0.4-0.1,0.5-0.2l10.8-9.1l5.3,3.2l15.2-10.5L37.8,21
		c-0.1,0.5,0.2,0.9,0.7,0.9c0.1,0,0.1,0,0.1,0c0.4,0,0.7-0.3,0.8-0.7l0.9-5.1L39.5,16.2z"/>
	<path fill="#006DB6" d="M53.6,6.4H38.9V2.8c0-1.5-1.2-2.8-2.8-2.8h-13c-1.5,0-2.8,1.2-2.8,2.8v3.6H5.6C2.5,6.4,0,8.9,0,12v25.8
		c0,3.1,2.5,5.6,5.6,5.6h48c3.1,0,5.6-2.5,5.6-5.6V12C59.2,8.9,56.7,6.4,53.6,6.4z M21.9,2.8c0-0.7,0.5-1.2,1.2-1.2h13
		c0.7,0,1.2,0.5,1.2,1.2v3.6H21.9V2.8z M57.5,37.7c0,2.2-1.8,3.9-3.9,3.9h-48c-2.2,0-3.9-1.8-3.9-3.9V12C1.6,9.8,3.4,8,5.6,8h48
		c2.2,0,3.9,1.8,3.9,3.9L57.5,37.7L57.5,37.7z"/>
	<g>
		<path fill="#006DB6" d="M51.9,35.4c-0.5,0-0.8-0.4-0.8-0.8V20.1c0-0.5,0.4-0.8,0.8-0.8s0.8,0.4,0.8,0.8v14.5
			C52.8,35,52.4,35.4,51.9,35.4z"/>
	</g>
	<g>
		<path fill="#006DB6" d="M47.3,35.4c-0.5,0-0.8-0.4-0.8-0.8v-8.3c0-0.5,0.4-0.8,0.8-0.8s0.8,0.4,0.8,0.8v8.3
			C48.2,35,47.8,35.4,47.3,35.4z"/>
	</g>
	<g>
		<path fill="#006DB6" d="M42.7,35.4c-0.5,0-0.8-0.4-0.8-0.8v-4.1c0-0.5,0.4-0.8,0.8-0.8s0.8,0.4,0.8,0.8v4.1
			C43.6,35,43.2,35.4,42.7,35.4z"/>
	</g>
	<g>
		<path fill="#006DB6" d="M38.5,35.4c-0.5,0-0.8-0.4-0.8-0.8v-7.6c0-0.5,0.4-0.8,0.8-0.8c0.5,0,0.9,0.4,0.9,0.8v7.6
			C39.4,35,39,35.4,38.5,35.4z"/>
	</g>
	<g>
		<path fill="#006DB6" d="M33.6,35.4c-0.5,0-0.8-0.4-0.8-0.8v-3.5c0-0.5,0.4-0.8,0.8-0.8c0.4,0,0.8,0.4,0.8,0.8v3.5
			C34.4,35,34,35.4,33.6,35.4z"/>
	</g>
</g>
</svg>
