<!-- Generator: Adobe Illustrator 19.1.0, SVG Export Plug-In  -->
<svg version="1.1"
	 xmlns="http://www.w3.org/2000/svg" xmlns:xlink="http://www.w3.org/1999/xlink" xmlns:a="http://ns.adobe.com/AdobeSVGViewerExtensions/3.0/"
	 x="0px" y="0px" width="69.4px" height="79.9px" viewBox="0 0 69.4 79.9" enable-background="new 0 0 69.4 79.9"
	 xml:space="preserve">
<defs>
</defs>
<g>
	<rect fill="none" width="69.4" height="79.9"/>
	<g>
		<g>
			<path fill="#c2c2c2" d="M49.1,73.3v6.6h-1.5v-6.6c0-0.4-0.3-1-0.7-1.2l-11.5-6.6c-0.2-0.1-0.4-0.1-0.7-0.1c-0.3,0-0.5,0-0.7,0.1
				l-11.5,6.6c-0.4,0.2-0.7,0.8-0.7,1.2v6.6h-1.5v-6.6c0-0.9,0.6-2,1.4-2.5l11.5-6.6c0.8-0.5,2-0.5,2.8,0l11.5,6.6
				C48.4,71.3,49.1,72.4,49.1,73.3z"/>
			<path fill="#c2c2c2" d="M45.1,75.6v4.3h-3.4v-1.6h-2.9v1.6H36v-4.8h-2.9v4.8h-8.8v-4.3c0-0.7,0.6-1.5,1.2-1.8l8.3-4.7
				c0.6-0.3,1.5-0.3,2.1,0l8.1,4.7C44.7,74.1,45.1,74.9,45.1,75.6z"/>
		</g>
		<g>
			<path id="XMLID_1_" fill="#c2c2c2" d="M47.6,0v6.6c0,0.4-0.3,1-0.7,1.2l-11.5,6.6c-0.4,0.2-1,0.2-1.4,0L22.5,7.8
				c-0.4-0.2-0.7-0.8-0.7-1.2V0h-1.5v6.6c0,0.9,0.6,2,1.4,2.5l11.5,6.6c0.4,0.2,0.9,0.4,1.4,0.4c0.5,0,1-0.1,1.4-0.4l11.5-6.6
				c0.8-0.5,1.4-1.5,1.4-2.5V0H47.6z"/>
			<path fill="#c2c2c2" d="M24.3,0h8.8v11.4l-2.7-1.5V1.5h-2.9v6.6l-2.1-1.2c-0.6-0.3-1-1.2-1-1.8V0z"/>
			<polygon fill="#c2c2c2" points="36,0 38.7,0 38.7,9.9 36,11.4 			"/>
			<path fill="#c2c2c2" d="M45.1,0v5.1c0,0.7-0.6,1.5-1.1,1.8l-2.3,1.2V0H45.1z"/>
		</g>
	</g>
	<g>
		<g>
			<path fill="#c2c2c2" d="M12.9,30.9L1.4,24.2C1,24,0.5,23.9,0,23.9v1.5c0.3,0,0.5,0.1,0.7,0.2l11.5,6.6c0.4,0.2,0.7,0.8,0.7,1.2
				v13.3c0,0.4-0.3,1-0.7,1.2L0.7,54.4c-0.2,0.1-0.4,0.2-0.7,0.2v1.5c0.5,0,1-0.1,1.4-0.4l11.5-6.6c0.8-0.5,1.4-1.5,1.4-2.5V33.3
				C14.3,32.4,13.7,31.3,12.9,30.9z"/>
			<path fill="#c2c2c2" d="M1.3,51.4L4,49.8V38.3h2.9v9.8l2.3-1.2c0.6-0.3,1.2-1.2,1.2-1.8v-9.4c0-0.7-0.4-1.5-1-1.8l-8.1-4.7
				c-0.3-0.2-0.8-0.3-1.2-0.2v6.3h1.3V51.4z"/>
		</g>
		<g>
			<path fill="#c2c2c2" d="M68.7,54.4l-11.5-6.6c-0.4-0.2-0.7-0.8-0.7-1.2V33.3c0-0.4,0.3-1,0.7-1.2l11.5-6.6
				c0.2-0.1,0.4-0.2,0.7-0.2v-1.5c-0.5,0-1,0.1-1.4,0.4l-11.5,6.6c-0.8,0.5-1.4,1.5-1.4,2.5v13.3c0,0.9,0.6,2,1.4,2.5L68,55.7
				c0.4,0.2,0.9,0.4,1.4,0.4v-1.5C69.2,54.6,68.9,54.5,68.7,54.4z"/>
			<path fill="#c2c2c2" d="M68.6,29.1l-8.3,4.7c-0.6,0.3-1.2,1.2-1.2,1.8v9.4c0,0.7,0.4,1.5,1,1.8l2.1,1.2v-6.6h2.9v8.3l2.7,1.5
				V35.2h1.6v-6.3C69.1,28.9,68.8,28.9,68.6,29.1z"/>
		</g>
	</g>
</g>
</svg>
