<?xml version="1.0" encoding="utf-8"?>
<!-- Generator: Adobe Illustrator 20.1.0, SVG Export Plug-In . SVG Version: 6.00 Build 0)  -->
<svg version="1.1" id="Capa_1" xmlns="http://www.w3.org/2000/svg" xmlns:xlink="http://www.w3.org/1999/xlink" x="0px" y="0px"
	 width="291.8px" height="327px" viewBox="0 0 291.8 327" style="enable-background:new 0 0 291.8 327;" xml:space="preserve">
<style type="text/css">
	.st0{fill:#FFFFFF;}
</style>
<path class="st0" d="M278.8,89.7c-2.4-5.1-6.3-9.8-10.9-12.4L159.2,14.5c-2.2-1.2-4.6-2.1-7.2-2.7c2.6,0.5,5.1,1.4,7.2,2.7L268,77.3
	C272.6,80,276.4,84.6,278.8,89.7z"/>
<path class="st0" d="M279.9,92.2c-0.3-0.8-0.6-1.7-1-2.5C279.2,90.5,279.6,91.4,279.9,92.2z"/>
<path class="st0" d="M0,0.1v327h291.8V0.1H0z M132.3,312.5L23.7,249.6c-5.7-3.3-10.4-9.8-12.3-16.6c-0.5-1.8-0.8-3.6-0.9-5.3V98.5
	c0.6-8.4,6.1-17.5,13.2-21.6l108.6-62.4c2.9-1.7,6.3-2.7,9.9-3.1c2.6-0.3,5.4-0.3,8,0.1c0.6,0.1,1.2,0.2,1.8,0.3
	c2.6,0.6,5,1.5,7.2,2.7l108.7,62.3c4.6,2.6,8.5,7.2,10.9,12.3c0.4,0.9,0.7,1.7,1,2.5c0.8,2.3,1.4,4.7,1.5,7v129.3
	c-0.1,1.7-0.4,3.4-0.9,5.1c-2,6.8-6.6,13.3-12.4,16.6l-108.8,62.9c-3.8,2.2-8.6,3.5-13.4,3.5S136.2,314.7,132.3,312.5z"/>
</svg>
